<svg width="60" height="60" viewBox="0 0 60 60" fill="none" xmlns="http://www.w3.org/2000/svg">
<path d="M2.14288 57.8569H49.2857" stroke="#fff" stroke-width="3" stroke-linecap="round" stroke-linejoin="round"/>
<path d="M27.8571 42.8571L15 45.1713L17.1429 32.1428L45.9857 3.38563C46.3841 2.98393 46.8581 2.6651 47.3804 2.44752C47.9026 2.22994 48.4628 2.11792 49.0286 2.11792C49.5943 2.11792 50.1545 2.22994 50.6768 2.44752C51.199 2.6651 51.673 2.98393 52.0714 3.38563L56.6143 7.92848C57.016 8.3269 57.3348 8.8009 57.5524 9.32316C57.77 9.84541 57.882 10.4056 57.882 10.9713C57.882 11.5371 57.77 12.0973 57.5524 12.6195C57.3348 13.1418 57.016 13.6158 56.6143 14.0142L27.8571 42.8571Z" stroke="#fff" stroke-width="3" stroke-linecap="round" stroke-linejoin="round"/>
</svg>
