<svg width="71" height="70" viewBox="0 0 71 70" fill="none" xmlns="http://www.w3.org/2000/svg">
<path d="M54.2501 40.3571C54.2626 37.0139 53.381 33.7281 51.6966 30.8402C50.0121 27.9522 47.5861 25.5672 44.67 23.9322C41.7538 22.2971 38.4534 21.4716 35.1109 21.541C31.7683 21.6104 28.5051 22.5723 25.6593 24.327C22.8136 26.0817 20.4887 28.5655 18.9256 31.5208C17.3626 34.4762 16.6181 37.7958 16.7695 41.1356C16.9208 44.4755 17.9624 47.7141 19.7863 50.5161C21.6102 53.318 24.1502 55.5813 27.143 57.0714V66.2857C27.1569 66.8305 27.3832 67.3483 27.7735 67.7286C28.1638 68.1089 28.6873 68.3216 29.2323 68.3214H41.768C42.3129 68.3216 42.8364 68.1089 43.2267 67.7286C43.617 67.3483 43.8433 66.8305 43.8573 66.2857V56.9107C46.9443 55.374 49.5477 53.0157 51.3813 50.0953C53.2148 47.1748 54.2075 43.8052 54.2501 40.3571V40.3571Z" stroke="#fff" stroke-width="3" stroke-linecap="round" stroke-linejoin="round"/>
<path d="M35.5 1.83928V9.87499" stroke="#fff" stroke-width="3" stroke-linecap="round" stroke-linejoin="round"/>
<path d="M56.9286 9.5L51.25 15.2321" stroke="#fff" stroke-width="3" stroke-linecap="round" stroke-linejoin="round"/>
<path d="M69.1429 26.1071H61.1072" stroke="#fff" stroke-width="3" stroke-linecap="round" stroke-linejoin="round"/>
<path d="M14.0715 9.5L19.7501 15.2321" stroke="#fff" stroke-width="3" stroke-linecap="round" stroke-linejoin="round"/>
<path d="M1.85718 26.1071H9.89289" stroke="#fff" stroke-width="3" stroke-linecap="round" stroke-linejoin="round"/>
</svg>
